<svg xmlns="http://www.w3.org/2000/svg" width="14.505" height="14.506" viewBox="0 0 14.505 14.506">
  <g id="グループ_7143" data-name="グループ 7143" transform="translate(-1253.915 -13.42)">
    <g id="グループ_1808" data-name="グループ 1808">
      <path id="パス_461" data-name="パス 461" d="M1268.012,19.516l-1.568-.37a5.484,5.484,0,0,0-.464-1.126l.845-1.369a.53.53,0,0,0-.076-.654l-.906-.906a.531.531,0,0,0-.654-.076l-1.368.846a5.457,5.457,0,0,0-1.126-.464l-.37-1.569a.53.53,0,0,0-.516-.408h-1.282a.53.53,0,0,0-.516.408l-.37,1.569a5.434,5.434,0,0,0-1.126.464l-1.369-.846a.531.531,0,0,0-.654.076l-.906.906a.531.531,0,0,0-.076.654l.846,1.369a5.451,5.451,0,0,0-.464,1.125l-1.569.37a.532.532,0,0,0-.408.517v1.282a.53.53,0,0,0,.408.516l1.569.37a5.452,5.452,0,0,0,.464,1.125l-.846,1.369a.532.532,0,0,0,.076.655l.906.9a.53.53,0,0,0,.654.077l1.369-.847a5.4,5.4,0,0,0,1.126.464l.37,1.569a.53.53,0,0,0,.516.409h1.282a.53.53,0,0,0,.516-.409l.37-1.569a5.369,5.369,0,0,0,1.125-.464l1.369.846a.529.529,0,0,0,.654-.076l.906-.906a.53.53,0,0,0,.076-.654l-.846-1.369a5.369,5.369,0,0,0,.464-1.125l1.569-.37a.53.53,0,0,0,.408-.516V20.032A.531.531,0,0,0,1268.012,19.516Zm-6.845,5.16a4,4,0,1,1,4-4A4,4,0,0,1,1261.167,24.676Z" fill="#404040"/>
      <path id="パス_462" data-name="パス 462" d="M1261.168,18.534a2.139,2.139,0,1,0,2.138,2.139A2.139,2.139,0,0,0,1261.168,18.534Z" fill="#404040"/>
    </g>
  </g>
</svg>
