<svg xmlns="http://www.w3.org/2000/svg" width="30.993" height="32.288" viewBox="0 0 30.993 32.288">
  <path id="パス_51" data-name="パス 51" d="M2716.245,1860.068a3.266,3.266,0,0,0-2.292-.956h-2.338v-4.082l-5.093-5.093H2691.8v9.175h-2.324a3.258,3.258,0,0,0-2.308.957h0a3.262,3.262,0,0,0-.956,2.309v10.348a3.259,3.259,0,0,0,3.183,3.261l.01,0h2.394v6.235h19.819v-6.235h2.322c.026,0,.039,0,.039,0h0a3.261,3.261,0,0,0,3.226-3.262v-10.348A3.262,3.262,0,0,0,2716.245,1860.068Zm-10.438-7.806,3.366,3.365h-3.366Zm-11.862-.176h10.6v4.8h4.922v2.6h-15.52Zm15.52,27.99h-15.52v-5.35h0v-5.583h15.519v6.468h0Zm5.587-7.351a1.114,1.114,0,0,1-1.115,1.115h-2.7v-6.467h-19.061v6.467h-2.7a1.113,1.113,0,0,1-1.115-1.115v-10.348a1.113,1.113,0,0,1,1.115-1.115h24.462a1.116,1.116,0,0,1,1.116,1.115v10.348Z" transform="translate(-2686.209 -1849.937)" fill="#fff"/>
</svg>
