<svg xmlns="http://www.w3.org/2000/svg" width="22" height="22" viewBox="0 0 22 22">
  <g id="グループ_123" data-name="グループ 123" transform="translate(-4459.286 -529)">
    <path id="パス_49" data-name="パス 49" d="M4470.286,551a11,11,0,1,1,11-11A11,11,0,0,1,4470.286,551Z" fill="#3c3c3c"/>
    <g id="グループ_122" data-name="グループ 122">
      <path id="パス_50" data-name="パス 50" d="M4477.13,538.843l-1.568-.37a5.453,5.453,0,0,0-.464-1.126l.845-1.368a.529.529,0,0,0-.076-.654l-.906-.907a.53.53,0,0,0-.654-.075l-1.368.845a5.488,5.488,0,0,0-1.126-.464l-.37-1.568a.53.53,0,0,0-.516-.409h-1.282a.532.532,0,0,0-.516.409l-.37,1.568a5.488,5.488,0,0,0-1.126.464l-1.368-.846a.531.531,0,0,0-.654.077l-.907.906a.532.532,0,0,0-.076.654l.846,1.368a5.455,5.455,0,0,0-.464,1.126l-1.569.37a.53.53,0,0,0-.408.516v1.282a.53.53,0,0,0,.408.516l1.569.371a5.469,5.469,0,0,0,.464,1.124l-.846,1.37a.531.531,0,0,0,.076.654l.906.906a.531.531,0,0,0,.654.076l1.369-.846a5.422,5.422,0,0,0,1.126.463l.37,1.569a.531.531,0,0,0,.516.409h1.282a.529.529,0,0,0,.516-.409l.37-1.569a5.37,5.37,0,0,0,1.125-.463l1.369.846a.532.532,0,0,0,.654-.076l.907-.907a.53.53,0,0,0,.075-.654l-.846-1.368a5.4,5.4,0,0,0,.464-1.126l1.569-.37a.529.529,0,0,0,.409-.516v-1.282A.531.531,0,0,0,4477.13,538.843ZM4470.286,544a4,4,0,1,1,4-4A4.005,4.005,0,0,1,4470.286,544Z" fill="#ececec"/>
      <path id="パス_51" data-name="パス 51" d="M4470.286,537.861a2.139,2.139,0,1,0,2.139,2.139A2.139,2.139,0,0,0,4470.286,537.861Z" fill="#ececec"/>
    </g>
  </g>
</svg>
