<svg xmlns="http://www.w3.org/2000/svg" width="25.442" height="18.382" viewBox="0 0 25.442 18.382">
  <g id="グループ_1141" data-name="グループ 1141" transform="translate(-6184.917 -590.219)">
    <path id="パス_275" data-name="パス 275" d="M6207.733,590.219a2.627,2.627,0,0,1,2.62,2.429l.006.2v13.13a2.625,2.625,0,0,1-2.429,2.62l-.2.006H6193.29a1.307,1.307,0,0,1-.8-.27l-.132-.114-6.613-6.618a3.289,3.289,0,0,1-.109-4.241l.157-.189,6.565-6.565a1.32,1.32,0,0,1,.758-.373l.172-.012Zm-9.833,5.436a1.313,1.313,0,0,0-1.708,1.934l.109.124,1.7,1.7-1.7,1.7-.109.124a1.313,1.313,0,0,0,1.842,1.842l.123-.109,1.7-1.7,1.7,1.7.123.109a1.313,1.313,0,0,0,1.843-1.842l-.109-.124-1.7-1.7,1.7-1.7.109-.124a1.313,1.313,0,0,0-1.843-1.842l-.123.109-1.7,1.7-1.7-1.7-.123-.109Z" fill="#3c3c3c"/>
  </g>
</svg>
