<svg xmlns="http://www.w3.org/2000/svg" width="40" height="39.645" viewBox="0 0 40 39.645">
  <g id="グループ_110" data-name="グループ 110" transform="translate(-1708.5 -273.513)">
    <path id="パス_36" data-name="パス 36" d="M1741.526,295.8v-3.7a13.058,13.058,0,1,0-26.116,0v3.7a13.058,13.058,0,0,0,26.116,0Zm-13.059,10.683a10.694,10.694,0,0,1-10.682-10.683v-3.7a10.677,10.677,0,0,1,.072-1.207,40.036,40.036,0,0,0,13.44-3.03,31.327,31.327,0,0,0,7.815,3.431c.021.267.039.533.039.806v3.7A10.694,10.694,0,0,1,1728.467,306.479Z" fill="#fff"/>
    <path id="パス_37" data-name="パス 37" d="M1746.5,287.56a18.707,18.707,0,0,0-36.256.084,2.873,2.873,0,0,0-1.743,2.64v7.18a2.872,2.872,0,1,0,5.744,0v-7.18a2.863,2.863,0,0,0-1.579-2.55,16.345,16.345,0,0,1,31.459.114,2.863,2.863,0,0,0-1.368,2.436v7.18a2.863,2.863,0,0,0,1.629,2.578,18.283,18.283,0,0,1-1.586,4.009,13.458,13.458,0,0,1-2.141,2.976,3.377,3.377,0,0,0-2.042-.693,3.412,3.412,0,1,0,3.412,3.411,3.341,3.341,0,0,0-.225-1.189l.176-.164a18.164,18.164,0,0,0,4.291-8.133,2.871,2.871,0,0,0,2.23-2.8v-7.18A2.864,2.864,0,0,0,1746.5,287.56Z" fill="#fff"/>
    <path id="パス_38" data-name="パス 38" d="M1723.322,292.886a1.632,1.632,0,1,0,1.633,1.633A1.632,1.632,0,0,0,1723.322,292.886Z" fill="#fff"/>
    <path id="パス_39" data-name="パス 39" d="M1733.44,292.886a1.632,1.632,0,1,0,1.631,1.633A1.633,1.633,0,0,0,1733.44,292.886Z" fill="#fff"/>
  </g>
</svg>
