<svg xmlns="http://www.w3.org/2000/svg" width="46.371" height="36.084" viewBox="0 0 46.371 36.084">
  <path id="パス_33" data-name="パス 33" d="M1552.855,189.57h-4.02a2.92,2.92,0,0,0-1.384.349l-.029.013h0l-1.849-4a9.489,9.489,0,0,0-8.613-5.507h-12.446a9.49,9.49,0,0,0-8.613,5.507l-1.731,3.743-.119.257a2.92,2.92,0,0,0-1.412-.362h-4.019a1.051,1.051,0,0,0-1.067.99,2.959,2.959,0,0,0,2.95,3.03h1.318l.538.006-.785,1.7a4.344,4.344,0,0,0-.4,1.822v17.945a1.455,1.455,0,0,0,1.451,1.451h2.643a1.455,1.455,0,0,0,1.451-1.451v-2.429l0-.711a7.865,7.865,0,0,0,2.365.362h23.3a7.845,7.845,0,0,0,2.18-.312c.063-.016.126-.029.189-.047v3.137a1.455,1.455,0,0,0,1.451,1.451h2.643a1.455,1.455,0,0,0,1.451-1.451V197.113a4.344,4.344,0,0,0-.4-1.822l-.558-1.206-.223-.5h1.852a2.96,2.96,0,0,0,2.951-3.029A1.05,1.05,0,0,0,1552.855,189.57Zm-26.763,20.595v-2.513a.362.362,0,0,1,.362-.363h8.566a.362.362,0,0,1,.362.363v2.513h-9.29Zm-1.578-26.2h12.446a5.083,5.083,0,0,1,4.6,2.937l2.831,6.126a1.993,1.993,0,0,1-1.808,2.832H1518.9a2,2,0,0,1-1.811-2.834l2.835-6.124A5.076,5.076,0,0,1,1524.514,183.968Zm-2.386,17.528a2.944,2.944,0,0,1,.646,1.841,1.067,1.067,0,0,1-1.068,1.067h-4.02a2.932,2.932,0,0,1-.968-.164,2.962,2.962,0,0,1-1.982-2.788.958.958,0,0,1,.039-.28,1.063,1.063,0,0,1,.274-.475,1.078,1.078,0,0,1,.755-.313h1.557l4.764,1.112Zm16.573,1.841a2.929,2.929,0,0,1,.649-1.841l4.763-1.112h1.557a1.067,1.067,0,0,1,1.03.788.991.991,0,0,1,.038.28,2.962,2.962,0,0,1-1.982,2.788,2.926,2.926,0,0,1-.967.164h-4.02a1.067,1.067,0,0,1-1.068-1.067Z" transform="translate(-1507.552 -180.425)" fill="#fff"/>
</svg>
