<svg xmlns="http://www.w3.org/2000/svg" width="19.564" height="22" viewBox="0 0 19.564 22">
  <g id="グループ_105" data-name="グループ 105" transform="translate(-4460.504 -232.003)">
    <g id="グループ_104" data-name="グループ 104">
      <g id="グループ_102" data-name="グループ 102">
        <g id="グループ_101" data-name="グループ 101">
          <path id="パス_28" data-name="パス 28" d="M4462.46,240.964h2.935a1.879,1.879,0,0,1,1.956,1.792v4.019a1.88,1.88,0,0,1-1.956,1.792h-2.935a1.88,1.88,0,0,1-1.956-1.792v-5.811c0-4.949,4.379-8.961,9.782-8.961s9.782,4.012,9.782,8.961v5.811a1.88,1.88,0,0,1-1.957,1.792h-2.934a1.88,1.88,0,0,1-1.957-1.792v-4.019a1.88,1.88,0,0,1,1.957-1.792h2.934c0-3.959-3.5-7.169-7.825-7.169S4462.46,237.005,4462.46,240.964Z" fill="#3c3c3c"/>
        </g>
      </g>
      <g id="グループ_103" data-name="グループ 103">
        <path id="パス_29" data-name="パス 29" d="M4477.082,247.533a.366.366,0,1,0-.733,0,4.628,4.628,0,0,1-3.294,4.414,1.466,1.466,0,0,0-1.342-.879h-2.237a1.468,1.468,0,0,0,0,2.935h2.237a1.463,1.463,0,0,0,1.451-1.305A5.376,5.376,0,0,0,4477.082,247.533Z" fill="#3c3c3c"/>
      </g>
    </g>
  </g>
</svg>
