<svg xmlns="http://www.w3.org/2000/svg" xmlns:xlink="http://www.w3.org/1999/xlink" width="143" height="14" viewBox="0 0 143 14">
  <defs>
    <clipPath id="clip-アートボード_1">
      <rect width="143" height="14"/>
    </clipPath>
  </defs>
  <g id="アートボード_1" data-name="アートボード – 1" clip-path="url(#clip-アートボード_1)">
    <text id="SUNPARKING" transform="translate(-0.199 13)" fill="#404040" font-size="16" font-family="JosefinSans-SemiBold, Josefin Sans" font-weight="600" letter-spacing="0.03em"><tspan x="0" y="0">SUNPARKING</tspan></text>
    <g id="グループ_7752" data-name="グループ 7752" transform="translate(-2844.199 -1997)">
      <rect id="長方形_3132" data-name="長方形 3132" width="29.24" height="13.516" rx="2.027" transform="translate(2958.159 1997.334)" fill="#404040"/>
      <g id="グループ_7751" data-name="グループ 7751" transform="translate(1258 1977)">
        <path id="パス_20" data-name="パス 20" d="M1708.389,23.814a2.439,2.439,0,0,1,.783,1.925,3.124,3.124,0,0,1-.279,1.315,2.289,2.289,0,0,1-.9,1,2.983,2.983,0,0,1-1.595.386h-1.175v2.831h-1.309V23.121h2.305A3.164,3.164,0,0,1,1708.389,23.814Zm-1.125,3.139a1.292,1.292,0,0,0,.47-.559,1.61,1.61,0,0,0,.141-.633,1.55,1.55,0,0,0-.33-.951,1.311,1.311,0,0,0-1.114-.436h-1.209v2.809h1.175A1.487,1.487,0,0,0,1707.264,26.953Z" fill="#a7dfd7"/>
        <path id="パス_21" data-name="パス 21" d="M1715.2,31.267l-1.835-2.831h-1.31v2.831h-1.309V23.121h2.294a3.286,3.286,0,0,1,2.188.693,2.383,2.383,0,0,1,.822,1.925,3.087,3.087,0,0,1-.319,1.393,2.185,2.185,0,0,1-1,.991l1.98,3.144Zm-3.145-4.084h1.164a1.386,1.386,0,0,0,1.136-.431,1.49,1.49,0,0,0,.353-.968,1.609,1.609,0,0,0-.135-.632,1.28,1.28,0,0,0-.459-.549,1.441,1.441,0,0,0-.85-.229h-1.209Z" fill="#a7dfd7"/>
        <path id="パス_22" data-name="パス 22" d="M1718.08,25.129A4.243,4.243,0,0,1,1719.6,23.6a4.078,4.078,0,0,1,4.162,0,4.316,4.316,0,0,1,1.528,1.533,4.076,4.076,0,0,1,.006,4.151,4.208,4.208,0,0,1-1.528,1.511,4.184,4.184,0,0,1-4.168.006,4.133,4.133,0,0,1-1.516-1.506,4.158,4.158,0,0,1,0-4.168Zm1.163,3.531a2.9,2.9,0,0,0,1.035,1.052,2.751,2.751,0,0,0,1.438.391,2.679,2.679,0,0,0,1.411-.386,2.832,2.832,0,0,0,1.012-1.052,3.02,3.02,0,0,0-.006-2.926,2.869,2.869,0,0,0-1.029-1.063,2.782,2.782,0,0,0-2.848,0,2.841,2.841,0,0,0-1.018,1.063,2.956,2.956,0,0,0-.375,1.466A2.867,2.867,0,0,0,1719.243,28.66Z" fill="#a7dfd7"/>
      </g>
    </g>
  </g>
</svg>
